<svg width="556" height="501" viewBox="0 0 556 501" xmlns="http://www.w3.org/2000/svg"><title>google-plus</title><desc>Created with Sketch.</desc><path d="M257.495 271.17c-18.05-13.514-31.585-31.532-36.098-36.036 0-9.01 0-13.514 22.56-31.532 31.586-22.523 45.123-54.054 45.123-85.586 0-31.532-9.024-54.054-22.56-72.072h22.56l31.585-22.523c4.512-4.5 4.512-9 4.512-13.51 0-4.5-4.512-9.01-9.024-9.01H167.25c-18.048 0-31.584 4.51-49.633 9.01C63.47 27.93 27.373 72.97 27.373 122.52c0 67.568 49.634 117.117 121.83 117.117v13.514c0 9.01 4.51 18.02 9.023 31.54-67.683 0-126.34 31.53-148.902 81.08C4.812 379.28.3 392.79.3 401.8c0 13.514 4.512 22.523 9.024 36.036 13.537 27.027 45.122 45.045 85.732 54.054 22.56 4.505 45.122 9.01 67.683 9.01 22.56 0 40.61-4.506 58.65-9.01 58.66-18.018 94.75-58.56 94.75-108.108 0-54.054-18.05-81.08-58.66-112.613zM104.08 113.512c-4.512-22.523 0-45.045 13.537-58.56 9.024-9.008 18.05-13.513 31.585-13.513 31.585 0 63.17 36.03 67.683 81.08 4.512 22.52 0 49.55-13.537 63.06-9.024 9.01-18.05 13.51-31.585 13.51-31.585-4.51-63.17-40.54-67.683-85.59zm54.146 337.838c-49.634 0-85.732-31.532-85.732-67.568s45.122-63.063 94.756-63.063c9.024 0 22.56 0 31.585 4.5 4.512 4.5 9.024 4.5 9.024 9.01 22.56 18.01 40.61 27.02 45.12 45.04v13.51c0 36.03-31.59 58.56-94.76 58.56zm383.537-252.252H456.03v-85.586c0-4.505-4.51-13.514-13.536-13.514h-22.56c-4.513 0-13.538 4.505-13.538 13.514v85.586h-85.732c-4.512 0-13.537 4.505-13.537 13.514v22.523c0 4.505 4.512 13.514 13.537 13.514h85.732v85.58c0 4.5 4.512 13.51 13.537 13.51h22.56c4.513 0 13.538-4.51 13.538-13.52v-85.58h85.74c4.51 0 13.54-4.51 13.54-13.52V212.6c-4.51-9.01-9.02-13.513-13.53-13.513z"/></svg>