<svg width="320" height="500" viewBox="0 0 320 500" xmlns="http://www.w3.org/2000/svg"><title>prott</title><desc>Created with Sketch.</desc><path d="M47.288 500.004C21.274 500.004.21 478.888.21 452.932V341.3c0-26.058 21.064-47.01 47.078-47.01h96.28c64.564 0 81.563-67.37 81.563-102.924 0-27.28-7.87-52.856-21.513-70.36-14.46-18.12-33.99-26.98-60.05-26.98H47.29C21.274 94.026.21 73.02.21 47.04.21 21.112 21.274.004 47.288.004h96.28C197.87.004 245.413 22.29 277.4 62.828c26.95 34.113 41.81 79.787 41.81 128.538 0 95.412-61.496 196.925-175.643 196.925H94.293v64.643c0 25.956-21.05 47.072-47.005 47.072" fill="#000" fill-rule="evenodd"/></svg>