<svg width="611" height="501" viewBox="0 0 611 501" xmlns="http://www.w3.org/2000/svg"><title>twitter</title><desc>Created with Sketch.</desc><path d="M553.168 125.1v14.423c0 168.27-129.898 360.577-360.827 360.577-72.16 0-139.52-19.23-192.44-57.692h28.87c57.74 0 115.47-19.23 158.77-52.885-57.73 0-101.03-38.462-120.27-86.538h24.05c9.62 0 24.06 0 33.68-4.808-57.73-9.615-101.03-62.5-101.03-125 19.24 9.615 38.48 14.423 57.72 14.423-33.67-24.038-57.73-62.5-57.73-105.77 0-24.037 4.81-43.268 19.25-62.5 62.54 76.924 153.95 125 259.79 134.616l-4.81-28.846c0-72.115 57.73-125 125.08-125 38.49 0 67.357 14.423 91.41 38.462 28.868-4.808 57.73-14.423 81.79-28.846-9.62 28.846-28.866 52.884-57.73 72.114 24.053-4.807 48.11-9.614 72.163-19.23-9.62 24.038-33.68 43.27-57.73 62.5z"/></svg>